<svg width="642" height="596" viewBox="0 0 642 596" fill="none" xmlns="http://www.w3.org/2000/svg">
<path d="M609.147 1.56775L359.365 186.898L405.761 77.5555L609.147 1.56775Z" fill="#E2761B" stroke="#E2761B" stroke-width="2.50785" stroke-linecap="round" stroke-linejoin="round"/>
<path d="M33.0945 1.56775L280.619 188.653L236.481 77.5555L33.0945 1.56775Z" fill="#E4761B" stroke="#E4761B" stroke-width="2.50785" stroke-linecap="round" stroke-linejoin="round"/>
<path d="M519.366 431.162L452.908 532.98L595.103 572.103L635.73 433.419L519.366 431.162Z" fill="#E4761B" stroke="#E4761B" stroke-width="2.50785" stroke-linecap="round" stroke-linejoin="round"/>
<path d="M6.76208 433.419L47.1384 572.103L189.333 532.98L123.126 431.162L6.76208 433.419Z" fill="#E4761B" stroke="#E4761B" stroke-width="2.50785" stroke-linecap="round" stroke-linejoin="round"/>
<path d="M181.559 259.124L141.935 319.061L282.876 325.331L278.111 173.606L181.559 259.124Z" fill="#E4761B" stroke="#E4761B" stroke-width="2.50785" stroke-linecap="round" stroke-linejoin="round"/>
<path d="M460.682 259.124L362.626 171.851L359.365 325.331L500.306 319.061L460.682 259.124Z" fill="#E4761B" stroke="#E4761B" stroke-width="2.50785" stroke-linecap="round" stroke-linejoin="round"/>
<path d="M189.333 532.98L274.349 491.601L201.12 434.422L189.333 532.98Z" fill="#E4761B" stroke="#E4761B" stroke-width="2.50785" stroke-linecap="round" stroke-linejoin="round"/>
<path d="M367.892 491.601L452.908 532.98L441.121 434.422L367.892 491.601Z" fill="#E4761B" stroke="#E4761B" stroke-width="2.50785" stroke-linecap="round" stroke-linejoin="round"/>
<path d="M452.908 532.98L367.892 491.601L374.663 547.024L373.911 570.347L452.908 532.98Z" fill="#D7C1B3" stroke="#D7C1B3" stroke-width="2.50785" stroke-linecap="round" stroke-linejoin="round"/>
<path d="M189.333 532.98L268.33 570.347L267.829 547.024L274.349 491.601L189.333 532.98Z" fill="#D7C1B3" stroke="#D7C1B3" stroke-width="2.50785" stroke-linecap="round" stroke-linejoin="round"/>
<path d="M269.835 397.808L199.114 376.992L249.02 354.171L269.835 397.808Z" fill="#233447" stroke="#233447" stroke-width="2.50785" stroke-linecap="round" stroke-linejoin="round"/>
<path d="M372.406 397.808L393.221 354.171L443.378 376.992L372.406 397.808Z" fill="#233447" stroke="#233447" stroke-width="2.50785" stroke-linecap="round" stroke-linejoin="round"/>
<path d="M189.333 532.98L201.622 431.162L123.126 433.419L189.333 532.98Z" fill="#CD6116" stroke="#CD6116" stroke-width="2.50785" stroke-linecap="round" stroke-linejoin="round"/>
<path d="M440.62 431.162L452.908 532.98L519.366 433.419L440.62 431.162Z" fill="#CD6116" stroke="#CD6116" stroke-width="2.50785" stroke-linecap="round" stroke-linejoin="round"/>
<path d="M500.306 319.061L359.365 325.331L372.406 397.808L393.221 354.171L443.378 376.992L500.306 319.061Z" fill="#CD6116" stroke="#CD6116" stroke-width="2.50785" stroke-linecap="round" stroke-linejoin="round"/>
<path d="M199.114 376.992L249.02 354.171L269.835 397.808L282.876 325.331L141.935 319.061L199.114 376.992Z" fill="#CD6116" stroke="#CD6116" stroke-width="2.50785" stroke-linecap="round" stroke-linejoin="round"/>
<path d="M141.935 319.061L201.12 434.422L199.114 376.992L141.935 319.061Z" fill="#E4751F" stroke="#E4751F" stroke-width="2.50785" stroke-linecap="round" stroke-linejoin="round"/>
<path d="M443.378 376.992L441.121 434.422L500.306 319.061L443.378 376.992Z" fill="#E4751F" stroke="#E4751F" stroke-width="2.50785" stroke-linecap="round" stroke-linejoin="round"/>
<path d="M282.876 325.331L269.835 397.808L286.387 483.325L289.898 370.723L282.876 325.331Z" fill="#E4751F" stroke="#E4751F" stroke-width="2.50785" stroke-linecap="round" stroke-linejoin="round"/>
<path d="M359.365 325.331L352.594 370.472L355.854 483.325L372.406 397.808L359.365 325.331Z" fill="#E4751F" stroke="#E4751F" stroke-width="2.50785" stroke-linecap="round" stroke-linejoin="round"/>
<path d="M372.406 397.808L355.854 483.325L367.892 491.601L441.121 434.422L443.378 376.992L372.406 397.808Z" fill="#F6851B" stroke="#F6851B" stroke-width="2.50785" stroke-linecap="round" stroke-linejoin="round"/>
<path d="M199.114 376.992L201.12 434.422L274.349 491.601L286.387 483.325L269.835 397.808L199.114 376.992Z" fill="#F6851B" stroke="#F6851B" stroke-width="2.50785" stroke-linecap="round" stroke-linejoin="round"/>
<path d="M373.911 570.347L374.663 547.025L368.394 541.507H273.848L267.829 547.025L268.33 570.347L189.333 532.981L216.92 555.551L273.095 594.423H369.146L425.322 555.551L452.908 532.981L373.911 570.347Z" fill="#C0AD9E" stroke="#C0AD9E" stroke-width="2.50785" stroke-linecap="round" stroke-linejoin="round"/>
<path d="M367.892 491.601L355.854 483.325H286.387L274.349 491.601L267.829 547.024L273.848 541.507H368.394L374.663 547.024L367.892 491.601Z" fill="#161616" stroke="#161616" stroke-width="2.50785" stroke-linecap="round" stroke-linejoin="round"/>
<path d="M619.68 198.935L640.746 96.6151L609.147 1.56775L367.892 180.628L460.682 259.124L591.843 297.494L620.683 263.638L608.144 254.609L628.206 236.302L612.909 224.265L632.971 208.967L619.68 198.935Z" fill="#763D16" stroke="#763D16" stroke-width="2.50785" stroke-linecap="round" stroke-linejoin="round"/>
<path d="M1.49561 96.6151L22.8123 198.935L9.26994 208.967L29.3327 224.265L14.0348 236.302L34.0976 254.609L21.5584 263.638L50.3986 297.494L181.559 259.124L274.349 180.628L33.0945 1.56775L1.49561 96.6151Z" fill="#763D16" stroke="#763D16" stroke-width="2.50785" stroke-linecap="round" stroke-linejoin="round"/>
<path d="M591.843 297.494L460.682 259.124L500.306 319.061L441.121 434.422L519.366 433.419H635.73L591.843 297.494Z" fill="#F6851B" stroke="#F6851B" stroke-width="2.50785" stroke-linecap="round" stroke-linejoin="round"/>
<path d="M181.559 259.124L50.3986 297.494L6.76208 433.419H123.126L201.12 434.422L141.935 319.061L181.559 259.124Z" fill="#F6851B" stroke="#F6851B" stroke-width="2.50785" stroke-linecap="round" stroke-linejoin="round"/>
<path d="M359.365 325.331L367.892 180.628L405.761 77.5555H236.481L274.349 180.628L282.876 325.331L286.136 370.974L286.387 483.325H355.854L356.105 370.974L359.365 325.331Z" fill="#F6851B" stroke="#F6851B" stroke-width="2.50785" stroke-linecap="round" stroke-linejoin="round"/>
</svg>
